<?xml version="1.0" encoding="UTF-8" standalone="no"?>
<!DOCTYPE svg PUBLIC "-//W3C//DTD SVG 1.1//EN"
 "http://www.w3.org/Graphics/SVG/1.1/DTD/svg11.dtd">
<!-- Generated by graphviz version 2.36.0 (20140111.2315)
 -->
<!-- Title: %3 Pages: 1 -->
<svg width="507pt" height="612pt"
 viewBox="0.00 0.00 507.21 612.00" xmlns="http://www.w3.org/2000/svg" xmlns:xlink="http://www.w3.org/1999/xlink">
<g id="graph0" class="graph" transform="scale(1 1) rotate(0) translate(4 608)">
<title>%3</title>
<polygon fill="#3f3f3f" stroke="none" points="-4,4 -4,-608 503.214,-608 503.214,4 -4,4"/>
<text text-anchor="middle" x="249.607" y="-9.2" font-family="Times,serif" font-size="16.00" fill="white">Network Map</text>
<!-- R4 -->
<g id="node1" class="node"><title>R4</title>
<polygon fill="#006699" stroke="#006699" points="318.214,-477.5 242.214,-477.5 242.214,-404.5 318.214,-404.5 318.214,-477.5"/>
<text text-anchor="middle" x="280.214" y="-437.3" font-family="Helvetica,sans-Serif" font-size="14.00" fill="white">R4</text>
</g>
<!-- R5 -->
<g id="node2" class="node"><title>R5</title>
<polygon fill="#006699" stroke="#006699" points="375.214,-603.5 299.214,-603.5 299.214,-530.5 375.214,-530.5 375.214,-603.5"/>
<text text-anchor="middle" x="337.214" y="-563.3" font-family="Helvetica,sans-Serif" font-size="14.00" fill="white">R5</text>
</g>
<!-- R4&#45;&#45;R5 -->
<g id="edge6" class="edge"><title>R4&#45;&#45;R5</title>
<path fill="none" stroke="green" stroke-dasharray="5,2" d="M275.455,-477.664C275.301,-489.035 276.622,-501.406 281.214,-512 285.295,-521.418 291.889,-530.004 299.143,-537.421"/>
<text text-anchor="middle" x="331.214" y="-500.3" font-family="Courier,monospace" font-size="14.00" fill="white"> &#160;&#160;&#160;&#160;&#160;&#160;&#160;&#160;&#160;&#160;&#160;</text>
<text text-anchor="middle" x="270.143" y="-526.221" font-family="Courier,monospace" font-size="14.00" fill="white">Eth 0/1</text>
<text text-anchor="middle" x="246.455" y="-481.464" font-family="Courier,monospace" font-size="14.00" fill="white">Eth 0/1</text>
</g>
<!-- R6 -->
<g id="node3" class="node"><title>R6</title>
<polygon fill="#006699" stroke="#006699" points="101.214,-225.5 25.2136,-225.5 25.2136,-152.5 101.214,-152.5 101.214,-225.5"/>
<text text-anchor="middle" x="63.2136" y="-185.3" font-family="Helvetica,sans-Serif" font-size="14.00" fill="white">R6</text>
</g>
<!-- R2 -->
<g id="node5" class="node"><title>R2</title>
<polygon fill="#006699" stroke="#006699" points="167.214,-351.5 91.2136,-351.5 91.2136,-278.5 167.214,-278.5 167.214,-351.5"/>
<text text-anchor="middle" x="129.214" y="-311.3" font-family="Helvetica,sans-Serif" font-size="14.00" fill="white">R2</text>
</g>
<!-- R6&#45;&#45;R2 -->
<g id="edge3" class="edge"><title>R6&#45;&#45;R2</title>
<path fill="none" stroke="green" stroke-dasharray="5,2" d="M58,-225.515C57.7826,-236.998 59.1813,-249.473 64.2136,-260 70.0982,-272.31 80.2855,-282.802 90.8728,-291.173"/>
<text text-anchor="middle" x="114.214" y="-248.3" font-family="Courier,monospace" font-size="14.00" fill="white"> &#160;&#160;&#160;&#160;&#160;&#160;&#160;&#160;&#160;&#160;&#160;</text>
<text text-anchor="middle" x="61.8728" y="-279.973" font-family="Courier,monospace" font-size="14.00" fill="white">Eth 0/2</text>
<text text-anchor="middle" x="29" y="-229.315" font-family="Courier,monospace" font-size="14.00" fill="white">Eth 0/1</text>
</g>
<!-- R1 -->
<g id="node4" class="node"><title>R1</title>
<polygon fill="#006699" stroke="#006699" points="285.214,-99.5 209.214,-99.5 209.214,-26.5 285.214,-26.5 285.214,-99.5"/>
<text text-anchor="middle" x="247.214" y="-59.3" font-family="Helvetica,sans-Serif" font-size="14.00" fill="white">R1</text>
</g>
<!-- SW1 -->
<g id="node7" class="node"><title>SW1</title>
<polygon fill="#006699" stroke="#006699" points="291.714,-225.5 202.714,-225.5 202.714,-152.5 291.714,-152.5 291.714,-225.5"/>
<text text-anchor="middle" x="247.214" y="-185.3" font-family="Helvetica,sans-Serif" font-size="14.00" fill="white">SW1</text>
</g>
<!-- R1&#45;&#45;SW1 -->
<g id="edge8" class="edge"><title>R1&#45;&#45;SW1</title>
<path fill="none" stroke="green" stroke-dasharray="5,2" d="M247.214,-99.5334C247.214,-116.137 247.214,-135.857 247.214,-152.461"/>
<text text-anchor="middle" x="297.214" y="-122.3" font-family="Courier,monospace" font-size="14.00" fill="white"> &#160;&#160;&#160;&#160;&#160;&#160;&#160;&#160;&#160;&#160;&#160;</text>
<text text-anchor="middle" x="218.214" y="-141.261" font-family="Courier,monospace" font-size="14.00" fill="white">Eth 0/1</text>
<text text-anchor="middle" x="218.214" y="-103.333" font-family="Courier,monospace" font-size="14.00" fill="white">Eth 0/0</text>
</g>
<!-- SW2 -->
<g id="node8" class="node"><title>SW2</title>
<polygon fill="#006699" stroke="#006699" points="173.714,-477.5 84.7136,-477.5 84.7136,-404.5 173.714,-404.5 173.714,-477.5"/>
<text text-anchor="middle" x="129.214" y="-437.3" font-family="Helvetica,sans-Serif" font-size="14.00" fill="white">SW2</text>
</g>
<!-- R2&#45;&#45;SW2 -->
<g id="edge2" class="edge"><title>R2&#45;&#45;SW2</title>
<path fill="none" stroke="green" stroke-dasharray="5,2" d="M129.214,-351.533C129.214,-368.137 129.214,-387.857 129.214,-404.461"/>
<text text-anchor="middle" x="179.214" y="-374.3" font-family="Courier,monospace" font-size="14.00" fill="white"> &#160;&#160;&#160;&#160;&#160;&#160;&#160;&#160;&#160;&#160;&#160;</text>
<text text-anchor="middle" x="95.7136" y="-393.261" font-family="Courier,monospace" font-size="14.00" fill="white">Eth 0/11</text>
<text text-anchor="middle" x="100.214" y="-355.333" font-family="Courier,monospace" font-size="14.00" fill="white">Eth 0/1</text>
</g>
<!-- R3 -->
<g id="node6" class="node"><title>R3</title>
<polygon fill="#006699" stroke="#006699" points="347.214,-351.5 271.214,-351.5 271.214,-278.5 347.214,-278.5 347.214,-351.5"/>
<text text-anchor="middle" x="309.214" y="-311.3" font-family="Helvetica,sans-Serif" font-size="14.00" fill="white">R3</text>
</g>
<!-- R3&#45;&#45;R4 -->
<g id="edge7" class="edge"><title>R3&#45;&#45;R4</title>
<path fill="none" stroke="green" stroke-dasharray="5,2" d="M287.824,-351.685C285.117,-357.624 282.759,-363.855 281.214,-370 278.458,-380.962 277.572,-393.198 277.562,-404.335"/>
<text text-anchor="middle" x="331.214" y="-374.3" font-family="Courier,monospace" font-size="14.00" fill="white"> &#160;&#160;&#160;&#160;&#160;&#160;&#160;&#160;&#160;&#160;&#160;</text>
<text text-anchor="middle" x="248.562" y="-393.135" font-family="Courier,monospace" font-size="14.00" fill="white">Eth 0/0</text>
<text text-anchor="middle" x="258.824" y="-355.485" font-family="Courier,monospace" font-size="14.00" fill="white">Eth 0/1</text>
</g>
<!-- R3&#45;&#45;R5 -->
<g id="edge1" class="edge"><title>R3&#45;&#45;R5</title>
<path fill="none" stroke="green" stroke-dasharray="5,2" d="M347.534,-335.133C360.701,-343.828 373.946,-355.466 381.214,-370 409.438,-426.448 402.371,-452.541 381.214,-512 378.943,-518.38 375.561,-524.553 371.661,-530.304"/>
<text text-anchor="middle" x="449.214" y="-437.3" font-family="Courier,monospace" font-size="14.00" fill="white"> &#160;&#160;&#160;&#160;&#160;&#160;&#160;&#160;&#160;&#160;&#160;</text>
<text text-anchor="middle" x="342.661" y="-519.104" font-family="Courier,monospace" font-size="14.00" fill="white">Eth 0/0</text>
<text text-anchor="middle" x="376.534" y="-323.933" font-family="Courier,monospace" font-size="14.00" fill="white">Eth 0/2</text>
</g>
<!-- SW1&#45;&#45;R2 -->
<g id="edge4" class="edge"><title>SW1&#45;&#45;R2</title>
<path fill="none" stroke="green" stroke-dasharray="5,2" d="M202.719,-225.41C195.965,-231.385 189.245,-237.699 183.214,-244 173.131,-254.534 163.096,-266.889 154.46,-278.264"/>
<text text-anchor="middle" x="233.214" y="-248.3" font-family="Courier,monospace" font-size="14.00" fill="white"> &#160;&#160;&#160;&#160;&#160;&#160;&#160;&#160;&#160;&#160;&#160;</text>
<text text-anchor="middle" x="125.46" y="-267.064" font-family="Courier,monospace" font-size="14.00" fill="white">Eth 0/0</text>
<text text-anchor="middle" x="173.719" y="-214.21" font-family="Courier,monospace" font-size="14.00" fill="white">Eth 0/2</text>
</g>
<!-- SW1&#45;&#45;R3 -->
<g id="edge5" class="edge"><title>SW1&#45;&#45;R3</title>
<path fill="none" stroke="green" stroke-dasharray="5,2" d="M276.065,-225.522C280.152,-231.482 284.037,-237.762 287.214,-244 292.648,-254.671 297.057,-266.943 300.462,-278.202"/>
<text text-anchor="middle" x="344.214" y="-248.3" font-family="Courier,monospace" font-size="14.00" fill="white"> &#160;&#160;&#160;&#160;&#160;&#160;&#160;&#160;&#160;&#160;&#160;</text>
<text text-anchor="middle" x="271.462" y="-267.002" font-family="Courier,monospace" font-size="14.00" fill="white">Eth 0/0</text>
<text text-anchor="middle" x="247.065" y="-229.322" font-family="Courier,monospace" font-size="14.00" fill="white">Eth 0/3</text>
</g>
</g>
</svg>
